<?xml version="1.0" encoding="UTF-8" standalone="no" ?>
<!DOCTYPE svg PUBLIC "-//W3C//DTD SVG 1.1//EN" "http://www.w3.org/Graphics/SVG/1.1/DTD/svg11.dtd">
<svg xmlns="http://www.w3.org/2000/svg" xmlns:xlink="http://www.w3.org/1999/xlink" version="1.1" width="1080" height="1080" viewBox="0 0 1080 1080" xml:space="preserve">
<desc>Created with Fabric.js 5.2.4</desc>
<defs>
</defs>
<g transform="matrix(1 0 0 1 540 540)" id="a22c4e69-a38f-451e-a970-a05c3a748c16"  >
<rect style="stroke: none; stroke-width: 1; stroke-dasharray: none; stroke-linecap: butt; stroke-dashoffset: 0; stroke-linejoin: miter; stroke-miterlimit: 4; fill: rgb(255,255,255); fill-rule: nonzero; opacity: 1; visibility: hidden;" vector-effect="non-scaling-stroke"  x="-540" y="-540" rx="0" ry="0" width="1080" height="1080" />
</g>
<g transform="matrix(1 0 0 1 540 540)" id="e64263f4-d41f-450c-b09b-28d107f5f829"  >
</g>
<g transform="matrix(1 0 0 1 540 540)"  >
<g style="" vector-effect="non-scaling-stroke"   >
		<g transform="matrix(6.25 0 0 6.25 0 28.41)"  >
<path style="stroke: none; stroke-width: 1; stroke-dasharray: none; stroke-linecap: butt; stroke-dashoffset: 0; stroke-linejoin: miter; stroke-miterlimit: 4; fill: rgb(8,204,126); fill-rule: nonzero; opacity: 1;" vector-effect="non-scaling-stroke"  transform=" translate(-34.65, -36.56)" d="M 47.6 27.8 C 43.800000000000004 21.6 44.1 11.100000000000001 34.2 11.100000000000001 C 24.300000000000004 11.100000000000001 25.300000000000004 21.6 21.6 27.8 C 18.900000000000002 32.3 13.400000000000002 38.4 13.400000000000002 45 C 13.400000000000002 67.7 55.900000000000006 67.7 55.900000000000006 45 C 55.800000000000004 38.4 50.300000000000004 32.3 47.60000000000001 27.8" stroke-linecap="round" />
</g>
		<g transform="matrix(6.25 0 0 6.25 -1.67 -155.53)"  >
<path style="stroke: none; stroke-width: 1; stroke-dasharray: none; stroke-linecap: butt; stroke-dashoffset: 0; stroke-linejoin: miter; stroke-miterlimit: 4; fill: rgb(148,113,81); fill-rule: nonzero; opacity: 1;" vector-effect="non-scaling-stroke"  transform=" translate(-34.38, -7.13)" d="M 35.2 2.1 C 35.1 1.8 34.1 2.3000000000000003 34.2 2.6 C 35.900000000000006 7.300000000000001 33.800000000000004 10.9 33.300000000000004 11.4 C 32.6 12.1 34.2 12.700000000000001 34.900000000000006 11.8 C 35.00000000000001 11.600000000000001 36.300000000000004 6.800000000000001 35.2 2.1000000000000014" stroke-linecap="round" />
</g>
</g>
</g>
<g transform="matrix(0.19 0 0 0.19 600.48 540)"  >
<g style="" vector-effect="non-scaling-stroke"   >
		<g transform="matrix(1 0 0 1 38.73 38.63)"  >
<path style="stroke: none; stroke-width: 1; stroke-dasharray: none; stroke-linecap: butt; stroke-dashoffset: 0; stroke-linejoin: miter; stroke-miterlimit: 4; fill: rgb(6,100,124); fill-rule: nonzero; opacity: 1;" vector-effect="non-scaling-stroke"  transform=" translate(-191.16, -191.06)" d="M 187.006 77.255 C 170.394 77.255 180.109 107.482 168.673 140.651 C 155.564 178.64600000000002 122.461 186.863 122.461 240.33 C 122.461 275.976 151.359 304.875 187.006 304.875 C 222.648 304.875 256.512 285.78 259.568 241.097 C 264.211 173.167 213.74 77.255 187.006 77.255 z M 192.963 282.665 C 164.582 282.665 141.49699999999999 259.574 141.49699999999999 231.18800000000002 C 141.49699999999999 226.967 144.92 223.543 149.14 223.543 C 153.35899999999998 223.543 156.784 226.967 156.784 231.18800000000002 C 156.784 251.14300000000003 173.012 267.377 192.963 267.377 C 197.182 267.377 200.607 270.8 200.607 275.02 C 200.607 279.23999999999995 197.182 282.665 192.963 282.665 z" stroke-linecap="round" />
</g>
		<g transform="matrix(1 0 0 1 -56.82 -68.6)"  >
<path style="stroke: none; stroke-width: 1; stroke-dasharray: none; stroke-linecap: butt; stroke-dashoffset: 0; stroke-linejoin: miter; stroke-miterlimit: 4; fill: rgb(6,100,124); fill-rule: nonzero; opacity: 1;" vector-effect="non-scaling-stroke"  transform=" translate(-95.62, -83.84)" d="M 146.009 120.695 C 149.429 70.656 112.245 0 92.557 0 C 80.32 0 87.476 22.265 79.047 46.699 C 69.392 74.692 45.007 80.739 45.007 120.128 C 45.007 146.394 66.292 167.679 92.55699999999999 167.679 C 118.813 167.678 143.756 153.609 146.009 120.695 z M 96.942 151.54 C 75.91199999999999 151.54 58.80199999999999 134.43099999999998 58.80199999999999 113.39999999999999 C 58.80199999999999 110.16499999999999 61.42499999999999 107.54299999999999 64.65899999999999 107.54299999999999 C 67.89399999999999 107.54299999999999 70.51599999999999 110.16499999999999 70.51599999999999 113.39999999999999 C 70.51599999999999 127.97099999999999 82.36999999999999 139.825 96.94099999999999 139.825 C 100.17599999999999 139.825 102.79799999999999 142.44799999999998 102.79799999999999 145.682 C 102.799 148.916 100.176 151.54 96.942 151.54 z" stroke-linecap="round" />
</g>
</g>
</g>
<g transform="matrix(0.49 0 0 0.49 540 504.52)"  >
<g style="" vector-effect="non-scaling-stroke"   >
		<g transform="matrix(1 0 0 1 -86.66 0)"  >
<path style="stroke: none; stroke-width: 1; stroke-dasharray: none; stroke-linecap: butt; stroke-dashoffset: 0; stroke-linejoin: miter; stroke-miterlimit: 4; fill: rgb(0,0,0); fill-rule: nonzero; opacity: 1;" vector-effect="non-scaling-stroke"  transform=" translate(-61.84, -148.5)" d="M 115.167 101.47 L 24.012 101.47 C 10.751 101.469 0 112.22 0 125.482 L 0 168.959 C 0 183.633 11.896 195.529 26.57 195.529 L 66.24000000000001 195.529 C 88.21700000000001 195.529 107.46300000000001 180.792 113.19400000000002 159.576 L 123.49100000000001 114.24 C 124.12400000000001 110.673 123.21500000000002 107.008 121.06000000000002 104.43599999999999 C 120.132 103.328 118.132 101.47 115.167 101.47 z M 24.542 138.106 C 22.597 138.106 20.654000000000003 137.364 19.169 135.881 C 16.202 132.913 16.202 128.102 19.169 125.134 L 24.597 119.706 C 27.565 116.74000000000001 32.376000000000005 116.74000000000001 35.344 119.706 C 38.311 122.674 38.311 127.485 35.344 130.453 L 29.916 135.881 C 28.432 137.364 26.487 138.106 24.542 138.106 z M 64.111 130.453 L 42.401 152.163 C 40.917 153.64600000000002 38.972 154.388 37.027 154.388 C 35.082 154.388 33.138 153.64600000000002 31.653000000000002 152.163 C 28.686000000000003 149.19500000000002 28.686000000000003 144.38400000000001 31.653000000000002 141.416 L 53.363 119.70599999999999 C 56.331 116.74 61.141999999999996 116.74 64.11 119.70599999999999 C 67.078 122.674 67.078 127.485 64.111 130.453 z" stroke-linecap="round" />
</g>
		<g transform="matrix(1 0 0 1 -0.87 -30.48)"  >
<path style="stroke: none; stroke-width: 1; stroke-dasharray: none; stroke-linecap: butt; stroke-dashoffset: 0; stroke-linejoin: miter; stroke-miterlimit: 4; fill: rgb(0,0,0); fill-rule: nonzero; opacity: 1;" vector-effect="non-scaling-stroke"  transform=" translate(-147.63, -118.02)" d="M 160.885 106.524 L 134.368 106.524 C 134.94299999999998 109.869 134.95499999999998 113.352 134.347 116.831 L 132.127 129.524 L 163.127 129.524 L 160.907 116.831 C 160.299 113.352 160.311 109.868 160.885 106.524 z" stroke-linecap="round" />
</g>
		<g transform="matrix(1 0 0 1 84.91 0)"  >
<path style="stroke: none; stroke-width: 1; stroke-dasharray: none; stroke-linecap: butt; stroke-dashoffset: 0; stroke-linejoin: miter; stroke-miterlimit: 4; fill: rgb(0,0,0); fill-rule: nonzero; opacity: 1;" vector-effect="non-scaling-stroke"  transform=" translate(-233.41, -148.5)" d="M 272.988 101.47 L 178.339 101.47 C 175.374 101.47 173.374 103.328 172.446 104.43599999999999 C 170.291 107.008 169.382 110.672 170.016 114.24 L 180.31199999999998 159.576 C 186.04299999999998 180.792 205.289 195.53 227.266 195.53 L 270.43 195.53 C 285.104 195.529 297 183.633 297 168.959 L 297 125.482 C 297 112.22 286.249 101.47 272.988 101.47 z M 192.422 135.881 C 189.45499999999998 132.913 189.45499999999998 128.102 192.422 125.134 L 197.85 119.706 C 200.81799999999998 116.74000000000001 205.629 116.74000000000001 208.59699999999998 119.706 C 211.564 122.674 211.564 127.485 208.59699999999998 130.453 L 203.16899999999998 135.881 C 201.68499999999997 137.364 199.73999999999998 138.106 197.795 138.106 C 195.851 138.106 193.906 137.364 192.422 135.881 z M 237.363 130.453 L 215.653 152.163 C 214.16899999999998 153.64600000000002 212.224 154.388 210.279 154.388 C 208.334 154.388 206.39 153.64600000000002 204.905 152.163 C 201.938 149.19500000000002 201.938 144.38400000000001 204.905 141.416 L 226.615 119.70599999999999 C 229.583 116.74 234.394 116.74 237.36200000000002 119.70599999999999 C 240.33 122.674 240.33 127.485 237.363 130.453 z" stroke-linecap="round" />
</g>
</g>
</g>
</svg>