<?xml version="1.0" encoding="UTF-8" standalone="no" ?>
<!DOCTYPE svg PUBLIC "-//W3C//DTD SVG 1.1//EN" "http://www.w3.org/Graphics/SVG/1.1/DTD/svg11.dtd">
<svg xmlns="http://www.w3.org/2000/svg" xmlns:xlink="http://www.w3.org/1999/xlink" version="1.1" width="1080" height="1080" viewBox="0 0 1080 1080" xml:space="preserve">
<desc>Created with Fabric.js 5.2.4</desc>
<defs>
</defs>
<g transform="matrix(1 0 0 1 540 540)" id="a22c4e69-a38f-451e-a970-a05c3a748c16"  >
<rect style="stroke: none; stroke-width: 1; stroke-dasharray: none; stroke-linecap: butt; stroke-dashoffset: 0; stroke-linejoin: miter; stroke-miterlimit: 4; fill: rgb(255,255,255); fill-rule: nonzero; opacity: 1; visibility: hidden;" vector-effect="non-scaling-stroke"  x="-540" y="-540" rx="0" ry="0" width="1080" height="1080" />
</g>
<g transform="matrix(1 0 0 1 540 540)" id="e64263f4-d41f-450c-b09b-28d107f5f829"  >
</g>
<g transform="matrix(1 0 0 1 540 540)"  >
<g style="" vector-effect="non-scaling-stroke"   >
		<g transform="matrix(6.25 0 0 6.25 0 28.41)"  >
<path style="stroke: none; stroke-width: 1; stroke-dasharray: none; stroke-linecap: butt; stroke-dashoffset: 0; stroke-linejoin: miter; stroke-miterlimit: 4; fill: rgb(8,204,126); fill-rule: nonzero; opacity: 1;" vector-effect="non-scaling-stroke"  transform=" translate(-34.65, -36.56)" d="M 47.6 27.8 C 43.800000000000004 21.6 44.1 11.100000000000001 34.2 11.100000000000001 C 24.300000000000004 11.100000000000001 25.300000000000004 21.6 21.6 27.8 C 18.900000000000002 32.3 13.400000000000002 38.4 13.400000000000002 45 C 13.400000000000002 67.7 55.900000000000006 67.7 55.900000000000006 45 C 55.800000000000004 38.4 50.300000000000004 32.3 47.60000000000001 27.8" stroke-linecap="round" />
</g>
		<g transform="matrix(6.25 0 0 6.25 -1.67 -155.53)"  >
<path style="stroke: none; stroke-width: 1; stroke-dasharray: none; stroke-linecap: butt; stroke-dashoffset: 0; stroke-linejoin: miter; stroke-miterlimit: 4; fill: rgb(148,113,81); fill-rule: nonzero; opacity: 1;" vector-effect="non-scaling-stroke"  transform=" translate(-34.38, -7.13)" d="M 35.2 2.1 C 35.1 1.8 34.1 2.3000000000000003 34.2 2.6 C 35.900000000000006 7.300000000000001 33.800000000000004 10.9 33.300000000000004 11.4 C 32.6 12.1 34.2 12.700000000000001 34.900000000000006 11.8 C 35.00000000000001 11.600000000000001 36.300000000000004 6.800000000000001 35.2 2.1000000000000014" stroke-linecap="round" />
</g>
</g>
</g>
<g transform="matrix(0.31 0 0 0.31 477.39 540)" id="7996a3e8-0df8-483a-b6da-d3d21adb8e11"  >
<circle style="stroke: rgb(0,0,0); stroke-width: 0; stroke-dasharray: none; stroke-linecap: butt; stroke-dashoffset: 0; stroke-linejoin: miter; stroke-miterlimit: 4; fill: rgb(247,186,200); fill-rule: nonzero; opacity: 0.85;" vector-effect="non-scaling-stroke"  cx="0" cy="0" r="80" />
</g>
<g transform="matrix(0.29 0 0 0.29 608.09 540)" id="7996a3e8-0df8-483a-b6da-d3d21adb8e11"  >
<circle style="stroke: rgb(0,0,0); stroke-width: 0; stroke-dasharray: none; stroke-linecap: butt; stroke-dashoffset: 0; stroke-linejoin: miter; stroke-miterlimit: 4; fill: rgb(247,186,200); fill-rule: nonzero; opacity: 0.85;" vector-effect="non-scaling-stroke"  cx="0" cy="0" r="80" />
</g>
<g transform="matrix(3.84 0 0 4.26 593.32 362.9)"  >
<g style="" vector-effect="non-scaling-stroke"   >
		<g transform="matrix(1 0 0 1 -3.83 0)"  >
<path style="stroke: none; stroke-width: 2; stroke-dasharray: none; stroke-linecap: butt; stroke-dashoffset: 0; stroke-linejoin: miter; stroke-miterlimit: 4; fill: rgb(0,0,0); fill-rule: nonzero; opacity: 1;"  transform=" translate(-9.5, -304.6)" d="M 12.666016 293.35938 L 6.3320316000000005 301.08594 L 9.779297 304.92383 L 6.3320316 308.71875 L 12.666015999999999 315.83203 L 12.666015999999999 312.84375 L 9 308.75586 L 12.47461 304.93164 L 9 301.0625 L 12.666015999999999 296.54102 z" stroke-linecap="round" />
</g>
		<g transform="matrix(1 0 0 1 3.84 0.01)"  >
<path style="stroke: none; stroke-width: 2; stroke-dasharray: none; stroke-linecap: butt; stroke-dashoffset: 0; stroke-linejoin: miter; stroke-miterlimit: 4; fill: rgb(0,0,0); fill-rule: nonzero; opacity: 1;"  transform=" translate(-17.17, -304.61)" d="M 20.332032 293.3711 L 13.998048 301.09766 L 17.445313 304.93555000000003 L 13.998047999999999 308.73047 L 20.332031999999998 315.84375 L 20.332031999999998 312.85547 L 16.666016 308.76758 L 20.140625999999997 304.94336 L 16.666016 301.07421999999997 L 20.332031999999998 296.55274 z" stroke-linecap="round" />
</g>
</g>
</g>
<g transform="matrix(-3.84 0 0 -4.26 480.91 367.34)"  >
<g style="" vector-effect="non-scaling-stroke"   >
		<g transform="matrix(1 0 0 1 -3.83 0)"  >
<path style="stroke: none; stroke-width: 2; stroke-dasharray: none; stroke-linecap: butt; stroke-dashoffset: 0; stroke-linejoin: miter; stroke-miterlimit: 4; fill: rgb(0,0,0); fill-rule: nonzero; opacity: 1;"  transform=" translate(-9.5, -304.6)" d="M 12.666016 293.35938 L 6.3320316000000005 301.08594 L 9.779297 304.92383 L 6.3320316 308.71875 L 12.666015999999999 315.83203 L 12.666015999999999 312.84375 L 9 308.75586 L 12.47461 304.93164 L 9 301.0625 L 12.666015999999999 296.54102 z" stroke-linecap="round" />
</g>
		<g transform="matrix(1 0 0 1 3.84 0.01)"  >
<path style="stroke: none; stroke-width: 2; stroke-dasharray: none; stroke-linecap: butt; stroke-dashoffset: 0; stroke-linejoin: miter; stroke-miterlimit: 4; fill: rgb(0,0,0); fill-rule: nonzero; opacity: 1;"  transform=" translate(-17.17, -304.61)" d="M 20.332032 293.3711 L 13.998048 301.09766 L 17.445313 304.93555000000003 L 13.998047999999999 308.73047 L 20.332031999999998 315.84375 L 20.332031999999998 312.85547 L 16.666016 308.76758 L 20.140625999999997 304.94336 L 16.666016 301.07421999999997 L 20.332031999999998 296.55274 z" stroke-linecap="round" />
</g>
</g>
</g>
</svg>